<?xml version="1.0" standalone="no"?>
<!DOCTYPE svg PUBLIC "-//W3C//DTD SVG 20010904//EN"
 "http://www.w3.org/TR/2001/REC-SVG-20010904/DTD/svg10.dtd">
<svg version="1.0" xmlns="http://www.w3.org/2000/svg"
 width="315.000000pt" height="327.000000pt" viewBox="0 0 315.000000 327.000000"
 preserveAspectRatio="xMidYMid meet">
<metadata>
Created by potrace 1.10, written by Peter Selinger 2001-2011
</metadata>
<g transform="translate(0.000000,327.000000) scale(0.100000,-0.100000)"
fill="#000000" stroke="none">
<path d="M1075 3109 c-186 -27 -370 -198 -418 -387 -13 -50 -16 -54 -93 -102
-248 -152 -372 -441 -308 -720 l15 -69 -41 -61 c-86 -126 -123 -246 -122 -392
2 -190 72 -351 210 -480 46 -43 50 -50 56 -110 24 -225 161 -427 358 -528 159
-82 370 -95 538 -33 79 30 180 96 241 160 l59 62 53 -56 c89 -96 209 -163 347
-194 66 -15 226 -12 295 6 273 70 468 299 501 585 6 55 10 61 78 132 54 54 83
95 114 158 56 114 73 184 73 310 1 149 -39 271 -126 385 l-37 47 17 86 c45
225 -13 431 -168 598 -52 56 -151 129 -199 147 -10 3 -20 19 -23 34 -41 190
-194 357 -374 408 -175 50 -369 8 -498 -109 l-53 -48 -52 47 c-69 62 -153 103
-245 121 -82 15 -109 16 -198 3z m214 -290 c33 -17 72 -45 86 -63 54 -71 55
-79 55 -440 0 -318 -1 -338 -21 -393 -44 -118 -130 -209 -252 -267 -88 -41
-117 -76 -117 -139 0 -73 57 -130 130 -130 42 0 144 44 215 93 l45 31 0 -375
c0 -346 -2 -380 -19 -426 -27 -72 -87 -145 -154 -191 -77 -51 -124 -64 -227
-63 -110 1 -180 27 -256 96 -50 46 -114 137 -114 163 0 6 30 9 75 7 86 -4 113
7 145 61 34 54 22 125 -28 170 -12 11 -53 23 -111 31 -162 25 -264 94 -328
224 -36 73 -38 80 -38 177 0 93 2 105 33 167 31 64 50 84 186 201 35 30 40 40
44 89 4 50 2 58 -27 90 -19 23 -46 39 -69 45 -36 9 -37 10 -40 61 -6 102 48
232 126 304 l45 41 15 -29 c51 -102 147 -131 222 -68 53 45 57 100 15 197 -24
58 -23 163 3 212 77 144 221 194 361 124z m768 18 c149 -55 216 -218 151 -368
-39 -91 -24 -157 45 -199 66 -40 143 -14 187 64 l28 48 46 -42 c77 -71 132
-209 124 -312 -3 -39 -5 -43 -38 -49 -21 -5 -48 -21 -67 -43 -28 -30 -33 -43
-33 -85 0 -58 19 -85 102 -146 244 -176 214 -543 -55 -679 -37 -18 -84 -32
-134 -38 -95 -12 -121 -23 -150 -67 -30 -44 -30 -98 0 -142 33 -49 61 -60 145
-57 43 2 72 -1 72 -7 0 -26 -64 -117 -114 -163 -120 -109 -298 -131 -448 -56
-64 32 -146 117 -177 183 l-26 56 -3 387 -3 388 58 -38 c158 -104 273 -110
317 -18 42 88 12 145 -106 204 -126 64 -203 146 -247 265 -20 55 -21 75 -21
398 0 297 2 344 17 372 53 104 134 155 243 155 30 0 69 -5 87 -11z"/>
</g>
</svg>
